<svg width="17" height="16" viewBox="0 0 17 16" fill="none" xmlns="http://www.w3.org/2000/svg">
<g clip-path="url(#clip0_586_832)">
<path d="M16.5 8.04813C16.5003 6.51922 16.0625 5.02223 15.2385 3.73441C14.4144 2.44659 13.2385 1.42189 11.8501 0.781636C10.4617 0.14138 8.91893 -0.0876158 7.40442 0.121765C5.88991 0.331145 4.46712 0.970131 3.30451 1.96306C2.1419 2.956 1.28816 4.26129 0.844396 5.72438C0.400627 7.18748 0.385409 8.7471 0.800544 10.2186C1.21568 11.6901 2.04378 13.0118 3.18679 14.0272C4.32981 15.0426 5.73986 15.7092 7.25 15.9481V10.3601H5.219V8.04813H7.25V6.28513C7.20627 5.87358 7.2536 5.45745 7.38863 5.06623C7.52366 4.675 7.74309 4.31827 8.03136 4.02131C8.31964 3.72436 8.6697 3.49444 9.05674 3.34786C9.44379 3.20128 9.85833 3.14163 10.271 3.17313C10.871 3.18101 11.4696 3.23316 12.062 3.32913V5.30013H11.054C10.8823 5.27768 10.7077 5.29412 10.5432 5.34825C10.3787 5.40237 10.2285 5.49279 10.1037 5.61282C9.97887 5.73284 9.88263 5.8794 9.8221 6.04165C9.76157 6.20389 9.73829 6.37768 9.754 6.55013V8.05013H11.973L11.618 10.3621H9.75V15.9531C11.6322 15.6554 13.3464 14.6955 14.5838 13.2463C15.8213 11.7971 16.5008 9.95377 16.5 8.04813V8.04813Z" fill="#246BFD"/>
</g>
<defs>
<clipPath id="clip0_586_832">
<rect width="16" height="16" fill="white" transform="translate(0.5)"/>
</clipPath>
</defs>
</svg>
