<svg width="24" height="24" viewBox="0 0 24 24" fill="none" xmlns="http://www.w3.org/2000/svg">
<path d="M18 15.2727V15.2727C18 16.8843 18 17.6901 17.6985 18.3108C17.4046 18.9159 16.9159 19.4046 16.3108 19.6985C15.6901 20 14.8843 20 13.2727 20H7.8C6.11984 20 5.27976 20 4.63803 19.673C4.07354 19.3854 3.6146 18.9265 3.32698 18.362C3 17.7202 3 16.8802 3 15.2V11.6154C3 10.1091 3 9.35601 3.2643 8.76876C3.56514 8.10031 4.10031 7.56514 4.76876 7.2643C5.35601 7 6.10914 7 7.61538 7V7" stroke-width="2" stroke-linejoin="round"/>
<path class="hover-filled" d="M7 8C7 6.11438 7 5.17157 7.58579 4.58579C8.17157 4 9.11438 4 11 4H11.6301C12.2163 4 12.5093 4 12.7472 4.14312C12.9851 4.28623 13.1224 4.54515 13.397 5.06299L14.5833 7.3H17.15C18.8902 7.3 19.7602 7.3 20.3285 7.80498C20.3872 7.85717 20.4428 7.91277 20.495 7.9715C21 8.53977 21 9.40985 21 11.15V11.15C21 12.8902 21 13.7602 20.495 14.3285C20.4428 14.3872 20.3872 14.4428 20.3285 14.495C19.7602 15 18.8902 15 17.15 15H11C9.11438 15 8.17157 15 7.58579 14.4142C7 13.8284 7 12.8856 7 11V8Z" stroke-width="2" stroke-linejoin="round"/>
</svg>
