<svg width="17" height="16" viewBox="0 0 17 16" fill="none" xmlns="http://www.w3.org/2000/svg">
<g clip-path="url(#clip0_586_2319)">
<path d="M16.171 6.545H8.53499V9.818H12.863C12.171 12 10.462 12.727 8.49999 12.727C7.73969 12.728 6.99037 12.5455 6.31562 12.1951C5.64086 11.8447 5.06058 11.3368 4.62401 10.7143C4.18744 10.0918 3.90745 9.37322 3.80782 8.61947C3.70818 7.86573 3.79183 7.09907 4.05166 6.38454C4.3115 5.67001 4.73985 5.0287 5.30039 4.51503C5.86092 4.00135 6.53709 3.63046 7.27153 3.43382C8.00597 3.23719 8.777 3.22061 9.51921 3.3855C10.2614 3.55039 10.9529 3.89188 11.535 4.381L13.913 2.116C12.9553 1.23383 11.7969 0.598747 10.5381 0.265867C9.27932 -0.0670124 7.95833 -0.0876225 6.68979 0.205826C5.42125 0.499275 4.24351 1.09791 3.2588 1.94977C2.2741 2.80163 1.5122 3.88096 1.03924 5.09406C0.566288 6.30716 0.396573 7.61737 0.544832 8.91094C0.693091 10.2045 1.15484 11.4423 1.89 12.517C2.62516 13.5916 3.6115 14.4706 4.76341 15.0775C5.91531 15.6845 7.19796 16.0012 8.49999 16C12.911 16 16.9 13.091 16.171 6.545Z" fill="#FF968E"/>
</g>
<defs>
<clipPath id="clip0_586_2319">
<rect width="16" height="16" fill="white" transform="translate(0.5)"/>
</clipPath>
</defs>
</svg>
